<svg width="92" height="68" viewBox="0 0 92 68" fill="none" xmlns="http://www.w3.org/2000/svg">
<path d="M28.137 48.9897V55.7603" stroke="#FFA500" stroke-width="2" stroke-linecap="round"/>
<path d="M13.7745 43.0406L8.98701 47.8281" stroke="#FFA500" stroke-width="2" stroke-linecap="round"/>
<path d="M7.82535 28.6781H1.0548" stroke="#FFA500" stroke-width="2" stroke-linecap="round"/>
<path d="M13.7745 14.3157L8.98701 9.52817" stroke="#FFA500" stroke-width="2" stroke-linecap="round"/>
<path d="M28.137 8.36646V1.59591" stroke="#FFA500" stroke-width="2" stroke-linecap="round"/>
<path d="M42.4995 14.3157L47.287 9.52817" stroke="#FFA500" stroke-width="2" stroke-linecap="round"/>
<path d="M48.4486 28.6781H55.2192" stroke="#FFA500" stroke-width="2" stroke-linecap="round"/>
<path d="M42.4995 43.0406L47.287 47.8281" stroke="#FFA500" stroke-width="2" stroke-linecap="round"/>
<path d="M28.137 39.9624C34.3691 39.9624 39.4212 34.9103 39.4212 28.6782C39.4212 22.4461 34.3691 17.3939 28.137 17.3939C21.9049 17.3939 16.8528 22.4461 16.8528 28.6782C16.8528 34.9103 21.9049 39.9624 28.137 39.9624Z" fill="#FFA500" stroke="#FFA500" stroke-width="2"/>
<path d="M90.6517 47.6357C90.6517 37.2542 82.3014 29.1295 72.1456 29.1295C69.8887 29.1295 67.8576 29.5809 65.8264 30.258C65.1493 22.5847 58.8302 16.2655 50.9312 16.2655C42.5808 16.2655 35.8103 23.0361 35.8103 31.3864C35.8103 33.1919 36.2617 34.9974 36.713 36.5771C36.036 36.3515 35.1332 36.3515 34.4562 36.3515C26.1058 36.3515 19.3353 43.122 19.3353 51.4723C19.3353 59.597 25.8802 66.3676 34.0048 66.5932H72.8226C82.7528 65.4648 90.6517 57.5658 90.6517 47.6357Z" fill="#91C0F8" stroke="white" stroke-width="1.2" stroke-linejoin="round"/>
</svg>
