<svg width="74" height="81" viewBox="0 0 74 81" fill="none" xmlns="http://www.w3.org/2000/svg">
<path d="M72.6518 32.6356C72.6518 22.2541 64.3014 14.1294 54.1456 14.1294C51.8888 14.1294 49.8576 14.5808 47.8264 15.2578C47.1494 7.58456 40.8302 1.26538 32.9312 1.26538C24.5809 1.26538 17.8103 8.03593 17.8103 16.3863C17.8103 18.1918 18.2617 19.9972 18.7131 21.577C18.036 21.3513 17.1333 21.3513 16.4562 21.3513C8.10587 21.3513 1.33533 28.1219 1.33533 36.4722C1.33533 44.5969 7.88019 51.3674 16.0048 51.5931H54.8227C64.7528 50.4647 72.6518 42.5657 72.6518 32.6356Z" fill="#57A0EE" stroke="white" stroke-width="1.2" stroke-linejoin="round"/>
<path d="M23.4576 59.078L20.3225 76.8585" stroke="#91C0F8" stroke-width="3" stroke-linecap="round" stroke-dasharray="0.1 7"/>
<path d="M35.3542 56.5924L32.2191 74.3729" stroke="#91C0F8" stroke-width="3" stroke-linecap="round" stroke-dasharray="0.1 7"/>
<path d="M46.0752 60.7745L42.94 78.555" stroke="#91C0F8" stroke-width="3" stroke-linecap="round" stroke-dasharray="0.1 7"/>
</svg>
