<svg width="93" height="100" viewBox="0 0 93 100" fill="none" xmlns="http://www.w3.org/2000/svg">
<path d="M34.137 59.052V67.1767" stroke="#FFA500" stroke-width="2.4" stroke-linecap="round"/>
<path d="M16.902 51.9131L11.157 57.6581" stroke="#FFA500" stroke-width="2.4" stroke-linecap="round"/>
<path d="M9.763 34.6781H1.63834" stroke="#FFA500" stroke-width="2.4" stroke-linecap="round"/>
<path d="M16.902 17.4431L11.157 11.6981" stroke="#FFA500" stroke-width="2.4" stroke-linecap="round"/>
<path d="M34.137 10.3041V2.17942" stroke="#FFA500" stroke-width="2.4" stroke-linecap="round"/>
<path d="M51.372 17.4431L57.117 11.6981" stroke="#FFA500" stroke-width="2.4" stroke-linecap="round"/>
<path d="M58.511 34.6781H66.6356" stroke="#FFA500" stroke-width="2.4" stroke-linecap="round"/>
<path d="M51.372 51.9131L57.117 57.6581" stroke="#FFA500" stroke-width="2.4" stroke-linecap="round"/>
<path d="M34.137 48.2192C41.6155 48.2192 47.6781 42.1566 47.6781 34.6781C47.6781 27.1995 41.6155 21.137 34.137 21.137C26.6584 21.137 20.5959 27.1995 20.5959 34.6781C20.5959 42.1566 26.6584 48.2192 34.137 48.2192Z" fill="#FFA500" stroke="#FFA500" stroke-width="2.4"/>
<path d="M91.7882 55.1929C91.7882 46.3686 84.6904 39.4626 76.058 39.4626C74.1397 39.4626 72.4132 39.8463 70.6867 40.4218C70.1112 33.8995 64.7399 28.5282 58.0258 28.5282C50.928 28.5282 45.173 34.2832 45.173 41.381C45.173 42.9156 45.5567 44.4503 45.9403 45.7931C45.3648 45.6013 44.5975 45.6013 44.022 45.6013C36.9242 45.6013 31.1693 51.3562 31.1693 58.454C31.1693 65.36 36.7324 71.1149 43.6383 71.3068H76.6335C85.0741 70.3476 91.7882 63.6335 91.7882 55.1929Z" fill="#57A0EE" stroke="white" stroke-width="1.275" stroke-linejoin="round"/>
<path d="M52.0056 79.6862L48.8704 97.4667" stroke="#91C0F8" stroke-width="2" stroke-linecap="round" stroke-dasharray="4 7"/>
<path d="M66.1248 77.5925L62.9896 95.373" stroke="#91C0F8" stroke-width="2" stroke-linecap="round" stroke-dasharray="4 7"/>
</svg>
